<svg xmlns="http://www.w3.org/2000/svg"  viewBox="0 0 100 100" width="100px" height="100px"><path fill="#81d4fa" d="M84.019,30c0-2.54-1.894-4.637-4.346-4.957C78.862,22.69,76.628,21,74,21h-9.121l-2.397-5.502	C61.556,13.373,59.374,12,56.923,12H43.077c-2.451,0-4.633,1.373-5.559,3.498L35.121,21H26c-2.628,0-4.862,1.69-5.673,4.043	c-2.452,0.32-4.346,2.418-4.346,4.957c0,2.445,1.756,4.48,4.075,4.914c0.9,9.968,3.215,34.76,4.303,46.956	c0.31,3.473,3.218,6.13,6.704,6.13h15.125l0,0H57h11.937c3.486,0,6.395-2.658,6.704-6.13c1.088-12.196,3.403-36.987,4.303-46.956	C82.264,34.48,84.019,32.445,84.019,30z M41.185,17.096C41.47,16.44,42.23,16,43.077,16h13.847c0.846,0,1.606,0.44,1.892,1.096	l1.7,3.904H39.484L41.185,17.096z"/><path fill="#4a254b" d="M50,73c2.567,0,4.683-1.935,4.967-4.426C55.002,68.271,54.781,68,54.476,68c-1.726,0-7.224,0-8.952,0 c-0.305,0-0.527,0.271-0.492,0.574C45.317,71.065,47.433,73,50,73z"/><circle cx="63.5" cy="61.5" r="6.5" fill="#fff"/><circle cx="63.5" cy="61.5" r="2.982" fill="#4a254b"/><circle cx="36.5" cy="61.5" r="6.5" fill="#fff"/><circle cx="36.5" cy="61.5" r="2.982" fill="#4a254b"/><g><path fill="#4a254b" d="M76,36H20c-0.276,0-0.5-0.224-0.5-0.5S19.724,35,20,35h56c0.276,0,0.5,0.224,0.5,0.5S76.276,36,76,36z"/></g></svg>